PathFileType	3	(X/Y/Z)	D:\Vicon Setup\UG\Test1\New Session\NewSession12.trc
DataRate	CameraRate	NumFrames	NumMarkers	Units	OrigDataRate	OrigDataStartFrame	OrigNumFrames
100.0	100.0	14	27	mm	100.0	605	351	
Frame#	Time	Sternum			LShoulder			RShoulder			LASIS			RASIS			RPSIS			LPSIS			RKneeLateral			RKneeMedial			RFibulaHead			RMidShank			RAnkleLateral			RAnkleMedial			RHeel			RMT5			RMT2			RToe			LKneeLateral			LKneeMedial			LFibulaHead			LMidShank			LAnkleLateral			LAnkleMedial			LHeel			LMT5			LMT2			LToe			
		X1	Y1	Z1	X2	Y2	Z2	X3	Y3	Z3	X4	Y4	Z4	X5	Y5	Z5	X6	Y6	Z6	X7	Y7	Z7	X8	Y8	Z8	X9	Y9	Z9	X10	Y10	Z10	X11	Y11	Z11	X12	Y12	Z12	X13	Y13	Z13	X14	Y14	Z14	X15	Y15	Z15	X16	Y16	Z16	X17	Y17	Z17	X18	Y18	Z18	X19	Y19	Z19	X20	Y20	Z20	X21	Y21	Z21	X22	Y22	Z22	X23	Y23	Z23	X24	Y24	Z24	X25	Y25	Z25	X26	Y26	Z26	X27	Y27	Z27	
605	6.04	-226.89581	1349.1865	-2113.5103	-421.33835	1414.3087	-2025.7531	-49.435356	1386.2687	-2020.5939	-359.90805	971.40149	-2064.3936	-102.16341	982.22662	-2061.8047	-167.37231	991.24634	-1887.1786	-297.55743	996.94189	-1883.7898	-71.361382	520.88074	-2146.585	-203.38771	507.88486	-2184.9722	-65.50663	447.93408	-2181.8389	-137.19737	314.63239	-2288.4575	-80.958557	105.9479	-2336.1904	-150.47646	162.82193	-2365.5854	-144.65042	52.371632	-2298.5237	-30.780039	130.08633	-2492.5718	-93.408882	168.03743	-2475.1843	-88.965958	188.60634	-2512.0461	-362.3862	510.10614	-1897.0007	-232.14734	498.72482	-1909.7645	-362.4993	454.8374	-1862.8236	-275.3595	302.25684	-1837.1949	-320.54584	128.7339	-1709.3693	-235.82582	135.07828	-1751.0391	-265.13644	113.32624	-1632.0475	-364.39999	41.561699	-1820.0962	-299.84769	55.38055	-1843.528			
606	6.05	-225.34023	1347.4302	-2128.6013	-419.98865	1412.4479	-2040.9076	-47.952396	1384.4176	-2035.2943	-359.4176	969.36267	-2079.8582	-101.3886	979.63544	-2077.8965	-165.44002	989.03528	-1902.8928	-295.57065	994.74139	-1899.4312	-70.670769	519.2851	-2164.1118	-203.44418	507.97034	-2201.012	-65.384186	446.09009	-2198.9067	-137.5658	313.02768	-2305.3079	-81.727226	104.25046	-2353.8206	-150.8956	161.18941	-2381.5125	-144.98439	50.116142	-2316.0876	-34.727612	129.99364	-2511.083	-96.5103	167.96915	-2491.5562	-92.63308	189.23073	-2527.9197	-362.54086	509.1983	-1908.9694	-232.48703	496.80792	-1922.7524	-362.71304	454.4989	-1873.6598	-275.85953	302.47589	-1844.8225	-320.9454	132.03444	-1712.5908	-236.3264	137.24129	-1754.6708	-265.26959	118.55331	-1635.4364	-364.57205	41.653732	-1820.6954	-299.89136	54.833794	-1844.5939			
607	6.06	-223.62546	1345.7228	-2143.7415	-418.33102	1410.7017	-2056.1333	-46.571682	1382.5143	-2050.1921	-358.74527	967.34375	-2095.4182	-100.52151	977.43805	-2094.1355	-163.64645	987.04541	-1918.791	-293.73929	992.68188	-1915.3069	-70.590103	517.87933	-2182.0127	-202.90007	508.57483	-2219.2405	-65.136566	444.57724	-2216.4023	-138.41449	310.48303	-2320.876	-83.301727	101.22034	-2367.6641	-152.80994	158.00021	-2394.532	-145.92564	46.874748	-2328.9824	-38.602272	126.759	-2525.1443	-99.879623	164.76605	-2504.7859	-96.53376	186.2733	-2541.0371	-363.00146	508.19052	-1921.7584	-233.41647	494.90045	-1936.3553	-363.1926	454.09357	-1885.2919	-276.62289	302.64093	-1853.0798	-321.13632	135.27055	-1716.1816	-237.01839	139.7205	-1758.7725	-265.59412	124.35912	-1639.2285	-364.60635	41.530964	-1821.1732	-300.30542	54.373451	-1845.842			
608	6.07	-221.75198	1344.1589	-2158.9812	-416.58511	1409.077	-2071.5291	-44.483604	1381.0344	-2065.1204	-357.89114	965.38885	-2111.3691	-99.62117	975.73657	-2110.595	-162.04794	985.23462	-1934.954	-292.04108	990.64941	-1931.5321	-70.499435	517.31244	-2200.5627	-201.98415	508.54541	-2238.5122	-64.858673	443.2662	-2234.4465	-139.88094	307.03152	-2334.9275	-85.441666	97.066147	-2377.6006	-155.45753	152.89925	-2404.6384	-146.95071	43.296497	-2337.8557	-41.556835	121.10078	-2535.1621	-103.2216	158.61539	-2515.0752	-100.43506	179.53941	-2551.731	-363.31039	506.83087	-1935.8077	-234.44466	492.85339	-1950.9158	-363.88669	453.45084	-1897.9252	-277.48532	302.9397	-1862.0432	-321.78934	139.08168	-1720.3704	-237.89322	142.41519	-1763.5103	-266.04742	130.92485	-1643.4934	-364.71237	41.563656	-1821.8031	-300.82397	53.889542	-1847.2095			
609	6.08	-219.81468	1342.7371	-2174.2507	-414.7886	1407.5931	-2086.9834	-42.973164	1379.619	-2080.1533	-356.71582	963.45734	-2127.7117	-98.483635	974.64929	-2127.3523	-160.53041	983.59601	-1951.5271	-290.47467	988.73792	-1948.1389	-69.646919	517.35315	-2220.6172	-200.99849	508.00604	-2257.78	-64.594185	442.02011	-2252.9407	-141.75514	302.87109	-2347.5208	-87.486961	92.985558	-2384.1201	-157.65004	147.19821	-2412.8079	-148.07289	45.098827	-2340.6838	-44.639572	111.12613	-2541.1763	-106.5987	149.05705	-2523.1147	-103.92779	168.76927	-2560.2012	-363.98022	505.41638	-1950.7312	-235.6427	490.69385	-1966.2654	-364.87302	452.71411	-1911.6415	-278.49313	303.24649	-1871.8988	-322.74274	143.25092	-1725.2767	-238.92786	145.28194	-1768.9711	-266.26047	137.7883	-1649.0831	-364.84613	41.565659	-1822.5085	-301.2662	53.370949	-1848.7004			
610	6.09	-217.75684	1341.457	-2189.5645	-412.74374	1406.0803	-2102.4102	-41.342777	1378.4071	-2095.1143	-355.32794	961.6377	-2144.4817	-97.201263	973.87897	-2144.4719	-159.05914	982.10266	-1968.4678	-288.94724	986.89178	-1965.0294	-68.678703	517.35217	-2241.4888	-199.9716	507.32266	-2276.8579	-64.304863	440.80093	-2271.5718	-143.56097	298.48318	-2358.9155	-88.632378	89.069115	-2387.782	-160.64403	140.95399	-2418.6763	-149.40369	46.21027	-2344.45	-46.911839	100.77061	-2546.3696	-109.66647	138.491	-2529.6106	-107.07844	157.05826	-2567.1187	-364.90176	503.82651	-1966.7318	-236.83881	488.6264	-1982.4388	-366.17899	451.78546	-1926.3578	-279.86868	303.54224	-1882.7821	-323.44904	147.63676	-1731.1547	-240.10771	148.36717	-1775.7527	-266.39502	145.67976	-1655.4355	-365.04959	41.449928	-1823.3562	-301.69879	52.935207	-1850.2712			
611	6.1	-215.66039	1340.428	-2204.9165	-410.92471	1404.9109	-2117.8955	-39.263752	1377.4287	-2110.2332	-353.74603	960.01898	-2161.4221	-95.722069	973.51971	-2161.9084	-157.53142	980.81738	-1985.6415	-287.46957	985.08911	-1982.1857	-67.591301	517.04529	-2261.835	-198.53767	506.79935	-2295.8337	-63.900761	439.47214	-2289.3311	-145.03505	294.47055	-2370.187	-89.448784	85.65979	-2392.9312	-162.29724	135.61649	-2426.23	-150.22867	47.885426	-2348.6248	-48.156982	91.263023	-2550.9077	-111.49841	129.11261	-2536.7429	-108.69964	146.36412	-2574.3562	-366.19397	502.24841	-1983.8503	-239.00009	486.28082	-1999.9309	-367.86124	450.85663	-1942.308	-281.58502	303.92535	-1895.1093	-324.07953	152.46448	-1738.2377	-241.49541	151.62517	-1783.4152	-266.23804	154.29349	-1663.5775	-365.28268	41.39967	-1824.4253	-302.05682	52.541374	-1852.0012			
612	6.11	-213.50511	1339.8314	-2220.3196	-408.90536	1403.8612	-2133.1602	-37.518074	1376.6407	-2125.1553	-352.05487	958.67627	-2178.5659	-94.097755	973.71143	-2179.7107	-155.82559	979.70868	-2003.0167	-285.89819	983.39099	-1999.3826	-65.884972	516.48792	-2280.3682	-196.45822	506.19781	-2314.6335	-62.712723	438.17267	-2305.2837	-145.25011	291.73477	-2381.905	-89.148529	83.809807	-2400.8308	-162.59856	132.07571	-2434.7979	-150.4395	50.349632	-2353.2771	-49.562092	81.21978	-2557.0222	-112.67382	120.78166	-2545.1797	-109.68628	136.17807	-2583.7712	-368.12683	500.73587	-2002.1284	-241.30818	483.88361	-2018.7466	-369.7157	449.97153	-1959.6534	-283.64523	304.3573	-1909.1158	-324.78522	157.62083	-1746.5189	-242.99678	155.10175	-1793.0675	-265.83353	163.88191	-1673.6757	-365.36584	41.456745	-1825.7216	-302.10617	52.170498	-1853.9038			
613	6.12	-211.4142	1339.7548	-2235.7603	-406.92142	1403.2192	-2148.2537	-35.592129	1376.0969	-2140.2505	-350.34906	957.53833	-2195.7642	-92.516815	974.37006	-2197.5779	-154.03207	978.95154	-2020.4473	-284.20847	981.81	-2016.7124	-64.296677	515.80859	-2296.426	-193.75987	505.08917	-2332.01	-60.690685	437.46155	-2319.8188	-144.10431	290.43985	-2394.0139	-88.009354	82.598846	-2408.3853	-161.96364	128.98676	-2443.7588	-150.02373	52.812969	-2357.1853	-50.840145	69.779877	-2563.6863	-113.64635	110.95868	-2554.3772	-111.023	124.05617	-2594.2087	-370.4234	499.04111	-2022.0728	-244.77303	481.31635	-2039.9275	-372.25702	449.38394	-1978.3298	-286.19327	304.74023	-1925.1069	-325.34366	163.29506	-1756.9686	-244.96999	158.37498	-1804.5862	-265.21756	174.46446	-1686.0507	-365.11569	41.851711	-1827.4102	-301.83981	52.099102	-1856.2324			
614	6.13	-209.44902	1340.2418	-2251.1858	-404.99384	1403.0007	-2163.2603	-33.695415	1375.8329	-2155.386	-348.56854	956.69061	-2212.7729	-90.927254	975.60162	-2215.1892	-152.09494	978.6554	-2037.8485	-282.50851	980.41577	-2033.953	-62.37952	515.85852	-2310.3008	-191.36235	503.49008	-2346.0029	-57.964863	437.70923	-2334.1238	-142.16805	289.44791	-2405.4329	-86.253479	81.668365	-2413.7205	-161.17897	126.55624	-2451.7241	-149.34956	54.63131	-2359.8179	-52.141392	57.800541	-2569.509	-114.41843	101.30862	-2561.8066	-111.85973	111.83189	-2602.5884	-373.23782	497.12338	-2043.6429	-248.48106	478.03644	-2062.991	-374.99921	448.70612	-1998.7797	-289.2417	304.93762	-1943.1342	-326.0094	169.19777	-1769.4656	-246.93887	161.77769	-1818.0898	-264.62228	186.07965	-1701.1847	-364.67731	42.620636	-1829.7021	-301.18198	51.962616	-1859.0815			
615	6.14	-207.55724	1341.0671	-2266.5879	-402.96796	1403.0841	-2178.1157	-31.83522	1375.8282	-2170.5447	-346.78186	956.05457	-2229.5098	-89.427498	977.29388	-2232.4199	-150.28297	979.10651	-2054.968	-280.93399	979.25311	-2050.9753	-59.776276	517.05151	-2324.2339	-190.11081	502.44315	-2356.5972	-55.30481	438.71481	-2349.5496	-140.07268	288.38763	-2415.6714	-85.01445	80.93264	-2417.4937	-160.08238	124.5302	-2457.2004	-148.5956	55.863899	-2361.5251	-52.176956	49.070599	-2573.0532	-113.89804	93.879753	-2567.3469	-111.589	102.04755	-2609.1453	-376.19727	494.90472	-2066.6001	-252.26262	473.88101	-2088.1292	-377.96063	447.79193	-2020.793	-292.59348	305.03146	-1962.9294	-326.64594	175.52399	-1784.0596	-249.09105	165.27371	-1833.215	-264.08447	198.93271	-1719.0654	-364.37039	43.978539	-1832.6165	-300.92383	52.117554	-1863.0675			
616	6.15	-205.83444	1342.0283	-2281.918	-401.23007	1403.7344	-2192.9221	-30.120378	1376.0807	-2185.8037	-344.95239	955.56714	-2245.792	-88.081436	979.41699	-2249.0806	-148.62537	980.1308	-2071.5789	-279.58871	978.33624	-2067.4504	-56.539833	518.93567	-2340.2822	-188.55032	503.04395	-2365.5417	-52.86171	440.04102	-2365.3333	-138.19824	288.02377	-2425.6133	-84.102249	80.86438	-2420.1938	-159.3773	123.71851	-2461.3267	-148.12479	56.799259	-2362.6255	-51.384026	42.159832	-2576.3069	-112.18477	87.903381	-2571.6692	-110.77168	93.858887	-2614.5999	-379.12051	492.37332	-2090.9548	-256.74194	468.74631	-2116.0959	-380.84503	446.65063	-2044.4021	-296.02615	305.13547	-1984.0331	-328.01245	182.79558	-1800.0287	-251.43826	169.37938	-1849.6718	-264.13477	212.8802	-1739.5884	-364.11084	46.268475	-1835.6575	-301.01181	52.721249	-1868.1162			
617	6.16	-204.37798	1343.0225	-2297.1685	-399.80054	1404.7909	-2207.667	-28.619553	1376.5027	-2201.1824	-343.20346	955.1958	-2261.4919	-86.902107	981.82147	-2265.0554	-147.32648	981.66071	-2087.5767	-278.48639	977.6167	-2083.354	-53.734333	521.09143	-2357.7097	-185.28014	506.19327	-2376.3057	-50.749107	441.40582	-2379.9944	-136.67166	288.08585	-2434.5386	-83.939713	81.305809	-2422.3323	-159.36494	123.21372	-2464.6863	-147.76471	57.526184	-2363.3359	-51.367966	37.881866	-2579.3477	-111.8622	83.831581	-2575.575	-111.67459	87.56385	-2619.3381	-381.72659	489.62827	-2116.698	-260.29044	463.34714	-2145.6062	-383.20325	445.2226	-2069.8113	-299.2998	305.603	-2006.4247	-329.55914	190.69853	-1817.9332	-253.82567	174.41292	-1867.688	-264.61218	227.57378	-1762.7141	-363.73233	49.910469	-1839.2867	-301.55063	54.105274	-1874.2666			
618	6.17	-203.19609	1344.0391	-2312.3748	-398.44754	1405.9689	-2222.2109	-27.31126	1377.0912	-2216.6628	-341.54529	954.95453	-2276.7446	-85.763153	984.32397	-2280.3784	-146.53674	983.50903	-2102.9304	-277.67209	977.07074	-2098.8564	-51.114807	523.11237	-2373.9353	-182.05029	510.38422	-2389.8635	-49.030224	442.45572	-2393.1335	-135.85536	288.21625	-2442.3879	-84.345268	81.918083	-2424.0378	-160.15541	122.82339	-2466.6401	-147.69348	57.990265	-2363.7649	-51.405506	35.849735	-2581.3169	-113.75243	80.448952	-2578.6272	-113.80375	82.390343	-2622.6323	-383.98163	486.89539	-2143.6677	-263.5329	458.0769	-2176.7065	-385.12161	443.76471	-2096.8254	-302.20236	306.50101	-2030.1969	-331.6084	199.53468	-1837.217	-256.89569	179.77533	-1887.4303	-265.37747	242.41125	-1788.6327	-363.26279	54.883923	-1843.7754	-302.61475	56.220734	-1881.9562			
